<?xml version="1.0" encoding="UTF-8"?>
<svg id="Layer_1" data-name="Layer 1" xmlns="http://www.w3.org/2000/svg" viewBox="0 0 685.78 263.83">
  <defs>
    <style>
      .cls-1 {
        fill: #0e0e0e;
      }

      .cls-1, .cls-2, .cls-3, .cls-4, .cls-5, .cls-6 {
        stroke-width: 0px;
      }

      .cls-2 {
        fill: #232323;
      }

      .cls-3 {
        fill: #d58a37;
      }

      .cls-4 {
        fill: #d48f4a;
      }

      .cls-5 {
        fill: #ac392d;
      }

      .cls-6 {
        fill: #fefefd;
      }
    </style>
  </defs>
  <g id="g0tsFn.tif">
    <g>
      <path class="cls-4" d="m40.15,100.16c.23,3.32-.12,6.65.38,9.97.73,4.83,1.57,9.6,3.28,14.22,1.44,3.89,3.13,7.61,5.18,11.2,2.93,5.15,6.67,9.61,10.86,13.77,3.18,3.17,6.72,5.95,10.53,8.18,4.16,2.42,8.5,4.64,13.15,6.12,5.44,1.73,10.98,2.73,16.69,3.18,5.6.45,11.06-.15,16.52-1.17,12.73-2.39,23.57-8.28,32.75-17.39,3.65-3.62,6.66-7.64,9.43-11.95,1.46-2.28,2.65-4.78,4.6-6.76,6.38-6.46,16.76-7.8,24.52-3.35,4.39,2.52,7.48,6.24,8.92,10.83,1.98,6.31,1,12.41-2.84,18.15-1.95,2.9-3.84,5.9-5.62,8.94-1.08,1.85-2.56,3.51-4.01,5.11-4.51,4.97-9.13,9.84-14.34,14.08-6.85,5.58-14.3,10.24-22.33,13.96-4.45,2.06-9.08,3.59-13.75,5.1-4.17,1.36-8.42,2.28-12.66,3.17-3.28.68-6.71,1.02-10.07,1.17-4.99.22-9.99.3-15-.12-5.42-.46-10.8-1.2-16.06-2.5-6.29-1.55-12.46-3.52-18.4-6.2-2.38-1.07-4.87-1.99-7.07-3.37-3.1-1.94-6.28-3.75-9.34-5.76-3.59-2.36-6.75-5.2-10.06-7.87-3.6-2.9-6.64-6.34-9.74-9.76-7.09-7.82-12.51-16.73-16.81-26.27-2.32-5.15-4.02-10.59-5.45-16.13-1.7-6.58-2.66-13.2-2.95-19.96,0-.19.06-.38.1-.57.58.05.96.35,1.08.92.47,2.14,1.84,3.82,2.78,5.71,1.57,3.14,4.65,4.17,7.08,6.11,1.15.92,2.59.51,3.83.91,3.98,1.29,8.05,1.07,11.69-.54,3.35-1.48,6.53-3.33,8.89-6.71,2.24-3.23,3.54-6.34,3.54-10.15,0-1.45-.33-2.95.36-4.36.13-.01.24,0,.35.07Z"/>
      <path class="cls-1" d="m412.23,118.75c0-13.8.2-27.6-.09-41.39-.14-6.64-2.17-12.93-7.47-17.44-3.99-3.41-8.85-4.66-14.11-4.41-5.24.25-9.9,1.85-13.44,5.86-2.39,2.7-4.13,5.76-5.03,9.34-1.07,4.21-1.14,8.45-1.14,12.73,0,25.09,0,50.19,0,75.28,0,.51.07,1.04-.01,1.54-.61,3.8-.09,4.21-4.61,4.46-1.73.09-3.47.03-5.2.01-3.07-.02-4.02-.97-4.02-4.04,0-26.44,0-52.88,0-79.33,0-5.94-.74-11.81-3.96-16.92-2.44-3.86-5.8-6.74-10.51-8.01-5.15-1.39-10.07-1.33-14.92.81-4.31,1.9-7.43,5.08-9.43,9.33-2.27,4.83-2.83,9.99-2.83,15.25,0,26.12,0,52.24,0,78.36,0,.64.02,1.29-.02,1.92-.08,1.37-.61,2.27-2.17,2.41-3.14.28-6.27.34-9.4-.02-1.22-.14-1.87-.71-1.95-1.94-.06-.96-.22-1.91-.22-2.87-.01-14.44-.02-28.88,0-43.32.01-11.97.1-23.93.08-35.9,0-5.32.54-10.65,2.37-15.55,1.86-4.97,4.43-9.7,8.56-13.43,2.96-2.68,6.02-5.1,9.69-6.63,6.3-2.62,12.92-3.28,19.58-2.16,7.02,1.18,12.75,4.84,17.31,10.34,1.44,1.73,2.78,3.47,3.74,5.52.41.86,1,1.44,1.87.03,2.18-3.53,4.37-7.04,7.74-9.68,7.03-5.5,14.89-7.36,23.71-6.4,8.23.89,14.85,4.66,20.41,10.45,2.63,2.74,4.43,6.12,5.9,9.67,1.73,4.16,2.65,8.43,3.14,12.93.76,6.85.52,13.69.54,20.54.05,21.37.02,42.74.02,64.11,0,3.33-1.03,4.38-4.34,4.4-2.12.02-4.24.02-6.36,0-2.23-.02-3.25-1.03-3.31-3.3-.04-1.67,0-3.34,0-5.01,0-12.52,0-25.03,0-37.55-.03,0-.06,0-.1,0Z"/>
      <path class="cls-5" d="m40.15,100.16c-.11-.06-.23-.08-.35-.07-1.32-9.27-9.23-15.92-18.34-16.5-8.59-.55-17.15,4.37-20.21,13.05-.22-.21-.44-.43-.66-.64-.33-4.78.88-9.39,1.74-14.01,1.03-5.5,2.77-10.85,4.82-16.06,1.55-3.93,3.46-7.71,5.45-11.46,1.34-2.53,3.05-4.84,4.27-7.42.75-1.59,1.96-2.84,2.98-4.18,4.44-5.81,8.99-11.53,14.69-16.27,3.19-2.65,6.32-5.37,9.7-7.77,5.11-3.62,10.59-6.55,16.22-9.3,5.63-2.76,11.5-4.78,17.51-6.32,4.4-1.13,8.89-1.97,13.45-2.55C95.76.1,100.07.12,104.42,0c8.93-.23,15.66,5.33,18.59,13.12,3.13,8.32.16,17.76-7.1,22.73-2.94,2.02-6.15,3.57-9.9,3.73-4.02.18-8.07.37-12.04.99-3.18.49-6.29,1.5-9.41,2.43-3.94,1.18-7.64,2.79-11.22,4.73-6.17,3.35-11.51,7.71-16.26,12.9-2.04,2.22-4.06,4.47-5.75,6.91-1.97,2.85-3.7,5.9-5.11,9.1-2.66,6.04-4.66,12.24-5.38,18.85-.17,1.55-.74,3.06-.69,4.66Z"/>
      <path class="cls-1" d="m452.33,183.72c0,8.41,0,16.82,0,25.23,0,3.06-.61,3.66-3.7,3.68-2.12.01-4.24,0-6.36,0-3.04-.01-3.62-.58-3.62-3.59,0-9.31,0-18.61,0-27.92,0-33.25.03-66.5,0-99.75,0-5.29.35-10.6,2.32-15.45,2.16-5.33,4.91-10.34,9.4-14.41,3.02-2.73,6.41-4.71,9.86-6.39,3.41-1.66,7.31-2.6,11.27-2.72,3.6-.11,7.22-.27,10.76.29,4.07.65,7.93,2.03,11.65,3.91,3.49,1.76,6.49,4.2,9.09,6.93,2.72,2.86,4.71,6.36,6.21,10.13,1.69,4.25,2.83,8.54,3.01,13.14.7,17.38.18,34.76.26,52.15.02,5.01-.56,10.08-2.41,14.79-2.17,5.54-5.18,10.48-9.75,14.62-4.27,3.86-9.06,6.29-14.47,7.61-8.91,2.18-17.51,1.16-25.46-3.58-2.24-1.33-4.2-3.13-5.96-5.11-.41-.46-.88-1.15-1.58-.88-.72.28-.5,1.1-.5,1.71,0,8.54,0,17.07,0,25.61Zm46.25-78.38h.14c0-8.27-.01-16.55,0-24.82,0-2.12-.16-4.21-.5-6.3-.77-4.64-2.73-8.75-5.83-12.2-3.1-3.46-7.14-5.65-11.75-6.2-7.45-.88-14.58-.38-20.63,5.11-3.8,3.45-5.76,7.7-6.9,12.44-.78,3.23-.84,6.57-.82,9.91.07,14.82-.04,29.63.07,44.45.04,5.1.67,10.1,3.13,14.81,2.41,4.6,6.05,7.76,10.67,9.54,6.94,2.68,13.99,2.53,20.76-.88,7.36-3.71,10.96-10.26,11.52-17.98.66-9.25.16-18.59.16-27.88Z"/>
      <path class="cls-1" d="m286.81,103.89c0,9.69.23,19.38-.07,29.06-.3,9.64-4.18,17.91-11.15,24.6-3.93,3.77-8.75,6.02-13.91,7.69-3.28,1.06-6.71,1.5-10.01,1.43-4.64-.1-9.31-.22-13.92-1.89-5.2-1.89-9.81-4.52-13.86-8.14-2.45-2.19-4.37-4.92-5.96-7.8-2.03-3.68-3.31-7.68-4.06-11.79-.89-4.81-1.11-9.81-.03-14.5,2.14-9.31,7.14-16.98,15.51-22,5.6-3.36,11.74-4.99,18.33-5.44,7.64-.52,15.26-.11,22.88-.3,2.69-.07,2.76-.01,2.69-2.79-.14-5.57.45-11.15-.31-16.69-1.17-8.46-5.09-15.29-13.32-18.35-8.58-3.19-19.74-2.31-26.18,6.75-1.8,2.54-2.97,5.45-3.66,8.51-.32,1.43-.52,2.88-.78,4.33-.45,2.49-1.12,3.21-3.63,3.37-2.18.14-4.37.14-6.55.02-2.85-.16-3.77-1.45-3.5-4.28.69-7.09,2.81-13.66,6.94-19.51,3.07-4.36,7.05-7.61,11.79-10.15,6.79-3.64,13.98-4.04,21.4-3.52,6.01.42,11.43,2.7,16.35,5.85,2.76,1.76,5.26,4.1,7.35,6.89,2.38,3.2,4.27,6.6,5.6,10.26,1.6,4.4,2.24,9.02,2.19,13.75-.08,8.21-.02,16.43-.02,24.64-.04,0-.07,0-.11,0Zm-13.49,17.32c0-3.53-.06-7.06.03-10.58.04-1.72-.54-2.49-2.31-2.44-7.82.2-15.65-.32-23.47.31-5.14.41-9.77,1.75-13.72,5.4-4.84,4.48-7.06,9.99-6.86,16.35.16,5.31,1.43,10.4,4.78,14.86,3.2,4.25,7.4,6.72,12.43,7.77,4.86,1.01,9.71.82,14.57-.65,3.51-1.06,6.42-2.94,8.7-5.6,4.13-4.82,5.81-10.64,5.86-16.94.02-2.82,0-5.65,0-8.47Z"/>
      <path class="cls-1" d="m676.96,79.81c-.39,0-.77,0-1.16,0-5.29,0-5.32,0-5.87-5.34-.57-5.44-2.68-10.16-6.7-13.88-2.15-1.99-4.77-3.24-7.65-4.13-3.98-1.24-7.98-1.23-11.94-.63-6.86,1.04-12.57,4.39-15.36,10.87-2.33,5.42-2.41,11.28.96,16.55,2.27,3.55,5.62,6.04,9.2,8.23,4.37,2.67,9.17,4.45,13.82,6.46,4.37,1.89,8.76,3.73,12.98,5.93,4.2,2.19,8.15,4.82,11.6,8.07,2.09,1.96,3.64,4.39,5.07,6.9,2.86,5.02,3.93,10.49,3.87,16.14-.11,9.8-4.13,17.95-11.67,24.14-5.35,4.39-11.69,6.5-18.62,7.49-4.75.68-9.39.39-13.9-.42-7.6-1.36-14.37-4.6-19.77-10.55-5.22-5.76-7.91-12.55-9.45-19.93-.43-2.05-.36-4.2-.53-6.3-.11-1.31.54-2.07,1.77-2.32,3.11-.63,6.27-.42,9.4-.23,2.39.14,2.61,2.25,2.69,3.99.19,4.41,1.14,8.61,3.28,12.46,2.55,4.6,6.44,7.54,11.54,9.02,6.12,1.77,12.18,1.87,18.34.27,5.63-1.47,9.77-4.78,11.71-10.18,2.92-8.13,1.57-15.6-4.66-21.21-3.79-3.42-8.11-6.15-12.97-7.95-2.08-.77-4.01-1.92-6.07-2.73-4.14-1.63-8.2-3.42-12.16-5.44-4.44-2.27-8.82-4.68-12.37-8.25-2-2.01-3.91-4.11-5.38-6.63-2.94-5.07-4.13-10.57-4.01-16.28.16-7.51,2.8-14.22,7.59-20.08,3.58-4.37,8.23-7.26,13.31-9.32,5.2-2.11,10.78-2.38,16.39-2.22,6.64.19,12.91,1.77,18.56,5.15,3.02,1.81,5.66,4.18,7.87,7.15,3.65,4.9,5.48,10.42,6.69,16.24.41,1.99.56,4.05.61,6.09.05,2.03-.76,2.78-2.79,2.87-1.41.07-2.83.01-4.24.01Z"/>
      <path class="cls-1" d="m585.36,89.91c0-13.86,0-27.73,0-41.59,0-2.81.78-3.69,3.57-3.79,2.31-.08,4.63.03,6.94-.04,1.88-.06,2.87.92,3.26,2.6.17.74.14,1.53.14,2.3,0,26.12.09,52.24-.05,78.36-.04,7.87-1.26,15.64-5.51,22.5-1.66,2.67-3.63,5.18-6.02,7.35-2.91,2.64-5.99,4.93-9.65,6.39-2.72,1.08-5.46,2.11-8.43,2.35-1.53.12-3.08.18-4.57.51-3.5.78-7-.06-10.25-.74-5.65-1.19-10.92-3.65-15.36-7.67-6.04-5.48-9.55-12.24-11.29-20.1-.74-3.34-.95-6.72-.95-10.1-.03-26.63-.01-53.27-.01-79.9,0-3.19.61-3.8,3.83-3.81,2.31,0,4.63-.02,6.94,0,1.96.02,2.91.93,3.07,2.9.04.51,0,1.03,0,1.54,0,27.02,0,54.04,0,81.06,0,5.66,1.43,11.03,4.64,15.63,2.54,3.65,6.19,6.08,10.65,7.35,6.25,1.79,12.12,1.12,17.85-1.76,3.69-1.86,6.16-4.87,8.12-8.4,2.46-4.44,3.03-9.3,3.05-14.23.06-12.9.02-25.8.02-38.7Z"/>
      <path class="cls-5" d="m162.34,22.57c11.26-.29,20.5,9.38,20.04,20.18-.47,10.95-8.95,18.83-19.71,19.23-11.17.41-20.56-9.36-20.48-19.68.09-11.09,9.22-19.72,20.15-19.73Z"/>
      <path class="cls-3" d="m1.24,96.64c3.07-8.68,11.63-13.6,20.21-13.05,9.11.58,17.02,7.24,18.34,16.5-.7,1.4-.36,2.9-.36,4.36,0,3.82-1.3,6.93-3.54,10.15-2.36,3.39-5.54,5.23-8.89,6.71-3.64,1.61-7.71,1.82-11.69.54-1.24-.4-2.68.01-3.83-.91-2.43-1.94-5.51-2.98-7.08-6.11-.95-1.89-2.31-3.57-2.78-5.71-.13-.57-.5-.87-1.08-.92-.04-.76-.08-1.52-.11-2.28.69-.52.41-1.27.43-1.94.07-2.45-.18-4.92.39-7.34Z"/>
      <path class="cls-2" d="m336.59,247.25c0-4.43-.03-8.85.03-13.27.01-.75-.66-2.04.77-2.17,1.45-.13,3.3-.82,4.19.94,2.71,5.35,6.05,10.33,8.85,15.62,1.22,2.3,2.83,4.39,3.85,6.81.17.39.37.7.84.55.47-.15.44-.6.42-.96-.06-1.27-.24-2.55-.25-3.82-.03-5.64.03-11.29-.04-16.93-.02-1.75.62-2.41,2.37-2.36,1.22.04,1.56.53,1.56,1.62-.01,9.43,0,18.85,0,28.28,0,.88-.16,1.78-1.27,1.79-1.29.02-2.72.42-3.57-1.14-4.07-7.49-8.78-14.63-12.55-22.29-.28-.56-.68-1.1-1.2-.99-.53.11-.48.83-.43,1.34.68,6.96.24,13.94.39,20.92.03,1.42-.44,2.17-1.94,2.21-1.5.04-2.05-.64-2.04-2.09.04-4.68.01-9.36.02-14.04Z"/>
      <path class="cls-2" d="m305.5,247.62c0-4.56-.02-9.11.02-13.67,0-.83-.36-2.04.93-2.18,1.33-.14,2.95-.6,3.81,1.01,4.06,7.57,8.89,14.71,12.65,22.45.23.47.4,1.06,1.04.91.74-.17.65-.9.58-1.41-.86-6.95-.48-13.94-.61-20.91-.03-1.58.55-2.16,2.13-2.16,1.62,0,2.14.75,2.14,2.23-.02,8.98-.01,17.97,0,26.95,0,1.03.17,2.21-1.22,2.45-1.47.25-3.23.41-3.94-1.15-1.41-3.1-3.51-5.77-4.99-8.82-1.53-3.14-3.46-6.09-5.29-9.07-.87-1.42-1.67-2.87-2.33-4.4-.23-.53-.6-.91-1.18-.73-.56.17-.39.76-.34,1.15.91,6.89.38,13.82.56,20.73.04,1.39-.38,2.22-1.85,2.36-1.42.14-2.15-.31-2.13-1.9.06-4.62.02-9.24.02-13.86Z"/>
      <path class="cls-2" d="m271.58,247.92c-.45-4.21.9-8.12,3.06-11.73,1.35-2.26,3.6-3.73,6.09-4.41,3.1-.85,6.42-1.03,9.36.34,3.46,1.61,6.08,4.09,7.33,8.05,1.65,5.22,1.63,10.27-.28,15.3-1.92,5.02-5.63,7.87-11.05,8.31-5.28.43-9.41-1.62-12.06-6.12-1.71-2.9-2.74-6.14-2.45-9.74Zm22.79-.94c-.45-3.71-.78-7.59-4.47-10.54-4.58-3.66-11.41-.69-12.91,3.86-1.6,4.87-1.56,9.71.28,14.58,2.07,5.51,9.02,7.17,13.34,3.13,3.16-2.96,3.48-6.78,3.77-11.04Z"/>
      <path class="cls-2" d="m367.91,247.29c0-4.55.05-9.1-.03-13.65-.02-1.39.36-1.97,1.81-1.95,4.94.05,9.88.03,14.82.01,1.22,0,1.92.35,1.92,1.75,0,1.36-.65,1.82-1.88,1.82-3.47,0-6.93.06-10.4-.03-1.47-.04-2.12.35-2.03,1.93.11,1.85.11,3.72,0,5.57-.1,1.64.4,2.32,2.15,2.23,2.69-.13,5.39.03,8.08-.06,1.39-.05,1.63.75,1.63,1.79,0,1.04-.24,1.82-1.64,1.77-2.76-.09-5.52.02-8.28-.05-1.36-.03-2,.35-1.95,1.84.09,2.63.1,5.26,0,7.88-.06,1.51.58,1.84,1.94,1.81,3.66-.07,7.32-.01,10.97-.03.96,0,1.82-.03,1.74,1.36-.06,1.21-.22,2.13-1.79,2.11-5.01-.05-10.01-.03-15.02,0-1.57,0-2.12-.71-2.09-2.25.06-4.61.02-9.23.02-13.85Z"/>
      <path class="cls-2" d="m396.06,247.59c-.24,4.26.59,8.06,4.24,10.88,3.21,2.47,7.85,2.41,10.85-.4,1.62-1.51,1.99-1.42,3.18.4.48.74.43,1.11-.17,1.76-3.45,3.73-9.83,4.58-14.7,2.25-6.12-2.94-8.25-10.04-7.87-16.14.19-3.08.9-5.91,2.51-8.51,2.22-3.58,5.22-6.02,9.62-6.46,3.5-.35,6.66.14,9.32,2.73.73.71,1.18,1.15.37,1.98-.71.73-1.5,1.79-2.56.74-2.75-2.73-5.96-2.47-9.04-1.2-3.9,1.61-5.28,5.15-5.74,9.09-.11.95-.02,1.92-.02,2.88Z"/>
      <path class="cls-2" d="m258.62,263.81c-7.08-.01-11.5-4.98-12.89-11.97-.96-4.82-.54-9.54,1.93-13.9,2.03-3.59,5.07-5.83,9.19-6.53,3.64-.62,6.93.17,9.88,2.4.63.48,1.61.8.7,1.89-.78.94-1.38,2.14-2.91,1.16-5.05-3.23-9.38-2.58-12.82,2.31-1.61,2.3-2.02,5.21-2.12,8.03-.13,3.45.65,6.76,2.74,9.53,3.15,4.18,8.86,4.87,12.94,1.06,1.25-1.17,1.81-.53,2.61.28.72.73.76,1.29-.03,2.09-2.36,2.36-5.09,3.74-9.22,3.65Z"/>
      <path class="cls-2" d="m426.55,249.21c0-4.1-.04-8.21.02-12.31.02-1.24-.37-1.72-1.65-1.67-1.99.08-3.98,0-5.97.02-1.28.01-1.86-.56-1.85-1.87,0-1.25.61-1.7,1.78-1.7,6.55.01,13.1.02,19.64,0,1.52,0,1.73.97,1.83,2.15.12,1.37-.79,1.41-1.73,1.41-1.99.01-3.98.08-5.97-.02-1.45-.07-1.89.49-1.88,1.9.05,7.95,0,15.9.05,23.86.01,1.7-.52,2.43-2.32,2.43-1.59,0-1.99-.68-1.98-2.08.04-4.04.01-8.08.01-12.12Z"/>
      <path class="cls-4" d="m1.24,96.64c-.57,2.42-.32,4.89-.39,7.34-.02.66.27,1.41-.43,1.94-.81-2.35-.19-4.75-.23-7.12-.01-.93.25-1.87.38-2.8.22.22.44.43.66.64Z"/>
      <path class="cls-6" d="m289.9,236.44c3.69,2.95,4.03,6.83,4.47,10.54-.29,4.26-.61,8.09-3.77,11.04-4.32,4.03-11.27,2.38-13.34-3.13"/>
    </g>
  </g>
</svg>